# xmcd
#
# Track frame offsets:
#	150
#	15735
#	35815
#	53882
#	74720
#	88435
#	111242
#	129482
#	149492
#	166292
#	190062
#	203937
#	219765
#	231542
#
# Disc length: 3324
#
# Revision: 2
# Processed by: cddbd v1.5.1PL0 Copyright (c) Steve Scherf et al.
# Submitted via: ExactAudioCopy v0.90b4
# Normalized: r1:DSETVAR1
#
DISCID=dc0cfa0e
DTITLE=Various Artist - Swingin' The Blues Vol. V
DYEAR=1998
DGENRE=Blues
TTITLE0=Love Dogs - Big and Hot (123 BPM)
TTITLE1=Eddy Clearwater - Crossover (126 BPM)
TTITLE2=Tommy Castro - Sho' Enough (121 BPM)
TTITLE3=Don Wise - Honky Tonk Song,Honky Tonk (103 BPM)
TTITLE4=Mike Morgan and the Crawl - Just the Kind of Man I Am (119 BPM)
TTITLE5=Dr. Ronnie Barnes - Who Is He? (109 BPM)
TTITLE6=Big Joe Burrell and the Unknown Blues Band - Dead Presidents (114 BPM)
TTITLE7=Screamin' Jay Hawkins - Heart Attack and Vine (99 BPM)
TTITLE8=Delbert McClinton - Maybe Someday Baby (130 BPM)
TTITLE9=Earl Thomas - The Way She Shakes That Thang (123 BPM)
TTITLE10=Walter "Wolfman" Washington - Tailspin (132 BPM)
TTITLE11=Magic Slim and the Teardrops - Cold Women With Warm Hearts (119 BPM)
TTITLE12=Frankie Paris and Cold Sweat - Leo's Juke and Jive (130 BPM)
TTITLE13=Jimmy Thackery and the Drivers - Dancing on Broken Glass (111 BPM)
EXTD=
EXTT0=
EXTT1=
EXTT2=
EXTT3=
EXTT4=
EXTT5=
EXTT6=
EXTT7=
EXTT8=
EXTT9=
EXTT10=
EXTT11=
EXTT12=
EXTT13=
PLAYORDER=
